# xmcd
#
# Track frame offsets: 
#        150
#        20760
#        36628
#        54340
#        75629
#        89733
#        102839
#        105823
#        130842
#        145868
#
# Disc length: 2517 seconds
#
# Revision: 3
# Processed by: cddbd v1.5.2PL0 Copyright (c) Steve Scherf et al.
# Submitted via: ExactAudioCopy v0.95b4
#
DISCID=8009d30a
DTITLE=Origin - Antithesis
DYEAR=2008
DGENRE=Death Metal
TTITLE0=The Aftermath
TTITLE1=Algorithm
TTITLE2=Consuming Misery
TTITLE3=Wrath Of Vishnu
TTITLE4=Finite
TTITLE5=The Appalling
TTITLE6=Void
TTITLE7=Ubiquitous
TTITLE8=The Beyond Within
TTITLE9=Antithesis
EXTD=
EXTT0=
EXTT1=
EXTT2=
EXTT3=
EXTT4=
EXTT5=
EXTT6=
EXTT7=
EXTT8=
EXTT9=
PLAYORDER=
